<svg width="422" height="138" viewBox="0 0 422 138" fill="none" xmlns="http://www.w3.org/2000/svg">
<path d="M125.655 126.568L122.375 129.511L122.375 129.511L125.655 126.568ZM89.176 85.92L85.8962 88.8634L85.8962 88.8634L89.176 85.92ZM85.9124 80.7396L89.9835 79.0521L88.8563 76.3326H85.9124V80.7396ZM58.0178 88.6899L53.6152 88.4924L53.6108 88.5911V88.6899H58.0178ZM58.0178 89.4434H53.6108V89.5021L53.6124 89.5608L58.0178 89.4434ZM58.0179 89.4496L53.6156 89.651L62.4233 89.3322L58.0179 89.4496ZM58.0178 89.4459L62.4201 89.2446L53.6108 89.4459H58.0178ZM16.8897 11.432L13.6099 14.3754L16.8897 11.432ZM53.3687 52.08L50.0889 55.0234L50.0889 55.0234L53.3687 52.08ZM57.7386 61.0473L53.3994 61.8167L54.0444 65.4542H57.7386V61.0473ZM84.5268 50.8224L88.9113 50.378L80.1202 50.7647L84.5268 50.8224ZM84.527 50.8244L80.1425 51.2688L88.9339 50.8244H84.527ZM122.375 129.511C129.251 137.173 141.952 132.309 141.952 122.015H133.138C133.138 124.225 130.411 125.269 128.935 123.625L122.375 129.511ZM85.8962 88.8634L122.375 129.511L128.935 123.625L92.4559 82.9766L85.8962 88.8634ZM81.8414 82.4271C82.8113 84.7671 84.176 86.9467 85.8962 88.8634L92.4559 82.9766C91.4069 81.8078 90.575 80.479 89.9835 79.0521L81.8414 82.4271ZM85.9124 76.3326H84.393V85.1465H85.9124V76.3326ZM84.393 76.3326H66.3444V85.1465H84.393V76.3326ZM66.3444 76.3326C59.4707 76.3326 53.9174 81.7582 53.6152 88.4924L62.4203 88.8875C62.5131 86.8184 64.229 85.1465 66.3444 85.1465V76.3326ZM62.4247 89.4434V88.6899H53.6108V89.4434H62.4247ZM62.4233 89.3322L62.4231 89.3259L53.6124 89.5608L53.6126 89.5671L62.4233 89.3322ZM53.6154 89.6472C53.6153 89.6443 53.6152 89.6419 53.6152 89.643C53.6152 89.6431 53.6154 89.6468 53.6156 89.651L62.4203 89.2483C62.4204 89.2513 62.4205 89.2537 62.4205 89.2526C62.4204 89.2524 62.4203 89.2488 62.4201 89.2446L53.6154 89.6472ZM62.4247 126.183V89.4459H53.6108V126.183H62.4247ZM51.2012 137.407C57.3998 137.407 62.4247 132.382 62.4247 126.183H53.6108C53.6108 127.514 52.532 128.593 51.2012 128.593V137.407ZM11.8166 137.407H51.2012V128.593H11.8166V137.407ZM0.59306 126.183C0.59306 132.382 5.618 137.407 11.8166 137.407V128.593C10.4858 128.593 9.40694 127.514 9.40694 126.183H0.59306ZM0.59306 15.9848V126.183H9.40694V15.9848H0.59306ZM20.1696 8.48852C13.2941 0.827296 0.59306 5.69084 0.59306 15.9848H9.40694C9.40694 13.7747 12.1338 12.7306 13.6099 14.3754L20.1696 8.48852ZM56.6486 49.1365L20.1696 8.48852L13.6099 14.3754L50.0889 55.0234L56.6486 49.1365ZM62.0779 60.2778C61.347 56.1562 59.4793 52.2907 56.6486 49.1365L50.0889 55.0234C51.8147 56.9465 52.9537 59.3033 53.3994 61.8167L62.0779 60.2778ZM57.7386 65.4542H70.0359V56.6403H57.7386V65.4542ZM70.0359 65.4542H74.1672V56.6403H70.0359V65.4542ZM74.1672 65.4542C82.2477 65.4542 88.8276 58.9598 88.9334 50.8801L80.1202 50.7647C80.0776 54.0221 77.4249 56.6403 74.1672 56.6403V65.4542ZM80.1423 51.2669L80.1425 51.2688L88.9115 50.38L88.9113 50.378L80.1423 51.2669ZM80.1201 11.8166V50.8244H88.9339V11.8166H80.1201ZM91.3436 0.59306C85.145 0.59306 80.1201 5.61798 80.1201 11.8166H88.9339C88.9339 10.4858 90.0128 9.40694 91.3436 9.40694V0.59306ZM130.728 0.59306H91.3436V9.40694H130.728V0.59306ZM141.952 11.8166C141.952 5.61799 136.927 0.59306 130.728 0.59306V9.40694C132.059 9.40694 133.138 10.4858 133.138 11.8166H141.952ZM141.952 122.015V11.8166H133.138V122.015H141.952Z" fill="#0F0F0F"/>
<path d="M169.355 57.0312C166.144 57.0312 164.872 58.243 164.872 61.9997V89.0236H171.294V64.1204C171.294 63.5145 171.537 63.2116 172.082 63.2116H182.564C189.29 63.2116 192.198 65.9988 192.198 71.0279V89.0236H198.682V71.0279C198.682 62.1815 193.41 57.0312 182.564 57.0312H169.355ZM218.194 57.0312C210.196 57.0312 207.045 61.515 207.045 67.5742V78.4807C207.045 84.5398 210.196 89.0236 218.194 89.0236H237.765V82.7827H218.194C214.68 82.7827 213.286 80.9043 213.286 78.3595V76.057H228.495C236.372 76.057 239.341 72.7245 239.341 66.8471C239.341 60.6667 236.129 57.0312 228.555 57.0312H218.194ZM213.286 67.6348C213.286 65.1505 214.68 63.2116 218.194 63.2116H228.495C231.646 63.2116 233.039 64.7869 233.039 67.2106C233.039 69.5737 231.767 71.0279 228.313 71.0279H213.286V67.6348ZM256.145 57.0312C248.693 57.0312 245.724 60.6061 245.724 66.3623C245.724 71.2703 247.905 75.6935 256.751 75.6935H264.325C267.537 75.6935 268.87 76.7235 268.87 79.2684C268.87 81.7526 267.658 82.7827 264.689 82.7827H246.087V89.0236H264.689C272.202 89.0236 275.171 85.0246 275.171 79.329C275.171 74.3604 272.929 70.3008 264.083 70.3008H256.57C252.995 70.3008 252.025 69.089 252.025 66.8471C252.025 64.4234 253.237 63.2116 256.206 63.2116H273.899V57.0312H256.145ZM279.53 57.0312V63.2116H283.893V77.9959C283.893 86.3576 286.74 89.0236 293.345 89.0236H299.101V83.1462H294.678C291.648 83.1462 290.376 81.9344 290.376 78.3595V63.2116H299.222V57.0312H290.376V49.4572H283.893V57.0312H279.53ZM317.824 57.0312C309.281 57.0312 303.948 62.2421 303.948 73.0274C303.948 83.8127 309.281 89.0236 317.824 89.0236H324.55C333.033 89.0236 338.425 83.8127 338.425 73.0274C338.425 62.2421 333.033 57.0312 324.55 57.0312H317.824ZM323.944 63.2116C329.458 63.2116 331.942 66.12 331.942 73.0274C331.942 79.9349 329.458 82.7827 323.944 82.7827H318.43C312.855 82.7827 310.432 79.9349 310.432 73.0274C310.432 66.12 312.855 63.2116 318.43 63.2116H323.944ZM354.718 57.0312C348.417 57.0312 346.054 59.9396 346.054 66.3623V89.0236H352.476V67.3318C352.476 64.5446 353.749 63.2116 356.597 63.2116H367.867V57.0312H354.718ZM374.162 57.0312V89.0236H380.584V57.0312H374.162ZM374.162 44.9735V52.4262H380.645V44.9735H374.162ZM398.69 57.0312C391.237 57.0312 388.268 60.6061 388.268 66.3623C388.268 71.2703 390.449 75.6935 399.296 75.6935H406.87C410.081 75.6935 411.414 76.7235 411.414 79.2684C411.414 81.7526 410.202 82.7827 407.233 82.7827H388.632V89.0236H407.233C414.747 89.0236 417.716 85.0246 417.716 79.329C417.716 74.3604 415.474 70.3008 406.627 70.3008H399.114C395.539 70.3008 394.57 69.089 394.57 66.8471C394.57 64.4234 395.781 63.2116 398.75 63.2116H416.443V57.0312H398.69Z" fill="#0F0F0F"/>
</svg>
